NotoSerifKannada-SemiBold.ufo
<glyph name="exclam" format="2">
  <advance width="384"/>
  <unicode hex="0021"/>
  <outline>
    <contour>
      <point x="164" y="229" type="line"/>
      <point x="220" y="229" type="line"/>
      <point x="280" y="714" type="line"/>
      <point x="104" y="714" type="line"/>
    </contour>
    <contour>
      <point x="193" y="-8" type="curve" smooth="yes"/>
      <point x="237" y="-8"/>
      <point x="276" y="12"/>
      <point x="276" y="72" type="curve" smooth="yes"/>
      <point x="276" y="134"/>
      <point x="237" y="153"/>
      <point x="193" y="153" type="curve" smooth="yes"/>
      <point x="146" y="153"/>
      <point x="110" y="134"/>
      <point x="110" y="72" type="curve" smooth="yes"/>
      <point x="110" y="12"/>
      <point x="146" y="-8"/>
    </contour>
  </outline>
</glyph>
<glyph name="parenleft" format="2">
  <advance width="402"/>
  <unicode hex="0028"/>
  <outline>
    <contour>
      <point x="371" y="-139" type="curve"/>
      <point x="371" y="-75" type="line"/>
      <point x="247" y="7"/>
      <point x="220" y="159"/>
      <point x="220" y="318" type="curve" smooth="yes"/>
      <point x="220" y="476"/>
      <point x="247" y="626"/>
      <point x="371" y="709" type="curve"/>
      <point x="371" y="772" type="line"/>
      <point x="146" y="683"/>
      <point x="57" y="532"/>
      <point x="57" y="318" type="curve" smooth="yes"/>
      <point x="57" y="103"/>
      <point x="146" y="-50"/>
    </contour>
  </outline>
</glyph>
<glyph name="parenright" format="2">
  <advance width="402"/>
  <unicode hex="0029"/>
  <outline>
    <contour>
      <point x="32" y="-139" type="line"/>
      <point x="257" y="-50"/>
      <point x="345" y="103"/>
      <point x="345" y="318" type="curve" smooth="yes"/>
      <point x="345" y="532"/>
      <point x="257" y="683"/>
      <point x="32" y="772" type="curve"/>
      <point x="32" y="709" type="line"/>
      <point x="155" y="626"/>
      <point x="182" y="476"/>
      <point x="182" y="318" type="curve" smooth="yes"/>
      <point x="182" y="159"/>
      <point x="155" y="7"/>
      <point x="32" y="-75" type="curve"/>
    </contour>
  </outline>
</glyph>
<glyph name="comma" format="2">
  <advance width="248"/>
  <unicode hex="002C"/>
  <outline>
    <contour>
      <point x="0" y="-154" type="line"/>
      <point x="130" y="-119"/>
      <point x="180" y="-43"/>
      <point x="180" y="42" type="curve" smooth="yes"/>
      <point x="180" y="111"/>
      <point x="147" y="153"/>
      <point x="91" y="153" type="curve" smooth="yes"/>
      <point x="50" y="153"/>
      <point x="15" y="129"/>
      <point x="15" y="83" type="curve" smooth="yes"/>
      <point x="15" y="3"/>
      <point x="88" y="14"/>
      <point x="88" y="-24" type="curve" smooth="yes"/>
      <point x="88" y="-61"/>
      <point x="58" y="-81"/>
      <point x="0" y="-102" type="curve"/>
    </contour>
  </outline>
</glyph>
<glyph name="period" format="2">
  <advance width="249"/>
  <unicode hex="002E"/>
  <outline>
    <contour>
      <point x="98" y="-8" type="curve" smooth="yes"/>
      <point x="142" y="-8"/>
      <point x="180" y="12"/>
      <point x="180" y="72" type="curve" smooth="yes"/>
      <point x="180" y="134"/>
      <point x="142" y="153"/>
      <point x="98" y="153" type="curve" smooth="yes"/>
      <point x="51" y="153"/>
      <point x="15" y="134"/>
      <point x="15" y="72" type="curve" smooth="yes"/>
      <point x="15" y="12"/>
      <point x="51" y="-8"/>
    </contour>
  </outline>
</glyph>
<glyph name="colon" format="2">
  <advance width="305"/>
  <unicode hex="003A"/>
  <outline>
    <contour>
      <point x="152" y="384" type="curve" smooth="yes"/>
      <point x="197" y="384"/>
      <point x="235" y="404"/>
      <point x="235" y="465" type="curve" smooth="yes"/>
      <point x="235" y="526"/>
      <point x="197" y="545"/>
      <point x="152" y="545" type="curve" smooth="yes"/>
      <point x="106" y="545"/>
      <point x="70" y="526"/>
      <point x="70" y="465" type="curve" smooth="yes"/>
      <point x="70" y="404"/>
      <point x="106" y="384"/>
    </contour>
    <contour>
      <point x="152" y="-8" type="curve" smooth="yes"/>
      <point x="197" y="-8"/>
      <point x="235" y="12"/>
      <point x="235" y="72" type="curve" smooth="yes"/>
      <point x="235" y="134"/>
      <point x="197" y="153"/>
      <point x="152" y="153" type="curve" smooth="yes"/>
      <point x="106" y="153"/>
      <point x="70" y="134"/>
      <point x="70" y="72" type="curve" smooth="yes"/>
      <point x="70" y="12"/>
      <point x="106" y="-8"/>
    </contour>
  </outline>
</glyph>
<glyph name="semicolon" format="2">
  <advance width="305"/>
  <unicode hex="003B"/>
  <outline>
    <contour>
      <point x="54" y="-154" type="line"/>
      <point x="184" y="-119"/>
      <point x="233" y="-43"/>
      <point x="233" y="42" type="curve" smooth="yes"/>
      <point x="233" y="111"/>
      <point x="201" y="153"/>
      <point x="145" y="153" type="curve" smooth="yes"/>
      <point x="104" y="153"/>
      <point x="69" y="129"/>
      <point x="69" y="83" type="curve" smooth="yes"/>
      <point x="69" y="3"/>
      <point x="142" y="14"/>
      <point x="142" y="-24" type="curve"/>
      <point x="142" y="-62"/>
      <point x="112" y="-81"/>
      <point x="54" y="-102" type="curve"/>
    </contour>
    <contour>
      <point x="152" y="384" type="curve" smooth="yes"/>
      <point x="197" y="384"/>
      <point x="235" y="404"/>
      <point x="235" y="465" type="curve" smooth="yes"/>
      <point x="235" y="526"/>
      <point x="197" y="545"/>
      <point x="152" y="545" type="curve" smooth="yes"/>
      <point x="106" y="545"/>
      <point x="70" y="526"/>
      <point x="70" y="465" type="curve" smooth="yes"/>
      <point x="70" y="404"/>
      <point x="106" y="384"/>
    </contour>
  </outline>
</glyph>
<glyph name="bracketleft" format="2">
  <advance width="417"/>
  <unicode hex="005B"/>
  <outline>
    <contour>
      <point x="100" y="-128" type="line"/>
      <point x="379" y="-128" type="line"/>
      <point x="379" y="-75" type="line"/>
      <point x="336" y="-75" type="line" smooth="yes"/>
      <point x="292" y="-75"/>
      <point x="254" y="-66"/>
      <point x="254" y="-3" type="curve" smooth="yes"/>
      <point x="254" y="635" type="line" smooth="yes"/>
      <point x="254" y="698"/>
      <point x="292" y="707"/>
      <point x="336" y="707" type="curve" smooth="yes"/>
      <point x="379" y="707" type="line"/>
      <point x="379" y="760" type="line"/>
      <point x="100" y="760" type="line"/>
    </contour>
  </outline>
</glyph>
<glyph name="braceleft" format="2">
  <advance width="442"/>
  <unicode hex="007B"/>
  <outline>
    <contour>
      <point x="317" y="-125" type="curve" smooth="yes"/>
      <point x="414" y="-125" type="line"/>
      <point x="414" y="-71" type="line"/>
      <point x="374" y="-71" type="line" smooth="yes"/>
      <point x="317" y="-71"/>
      <point x="303" y="-37"/>
      <point x="303" y="26" type="curve" smooth="yes"/>
      <point x="303" y="197" type="line" smooth="yes"/>
      <point x="303" y="257"/>
      <point x="270" y="296"/>
      <point x="193" y="315" type="curve"/>
      <point x="193" y="323" type="line"/>
      <point x="271" y="341"/>
      <point x="303" y="380"/>
      <point x="303" y="440" type="curve" smooth="yes"/>
      <point x="303" y="610" type="line" smooth="yes"/>
      <point x="303" y="673"/>
      <point x="317" y="707"/>
      <point x="374" y="707" type="curve" smooth="yes"/>
      <point x="414" y="707" type="line"/>
      <point x="414" y="760" type="line"/>
      <point x="317" y="760" type="line" smooth="yes"/>
      <point x="204" y="760"/>
      <point x="145" y="707"/>
      <point x="145" y="614" type="curve" smooth="yes"/>
      <point x="145" y="442" type="line" smooth="yes"/>
      <point x="145" y="367"/>
      <point x="94" y="351"/>
      <point x="29" y="349" type="curve"/>
      <point x="29" y="288" type="line"/>
      <point x="94" y="285"/>
      <point x="145" y="270"/>
      <point x="145" y="194" type="curve" smooth="yes"/>
      <point x="145" y="23" type="line" smooth="yes"/>
      <point x="145" y="-68"/>
      <point x="204" y="-125"/>
    </contour>
  </outline>
</glyph>
<glyph name="braceright" format="2">
  <advance width="442"/>
  <unicode hex="007D"/>
  <outline>
    <contour>
      <point x="29" y="-125" type="line"/>
      <point x="125" y="-125" type="line"/>
      <point x="238" y="-125"/>
      <point x="297" y="-68"/>
      <point x="297" y="23" type="curve" smooth="yes"/>
      <point x="297" y="194" type="line" smooth="yes"/>
      <point x="297" y="270"/>
      <point x="349" y="285"/>
      <point x="414" y="288" type="curve"/>
      <point x="414" y="349" type="line"/>
      <point x="349" y="351"/>
      <point x="297" y="367"/>
      <point x="297" y="442" type="curve" smooth="yes"/>
      <point x="297" y="614" type="line" smooth="yes"/>
      <point x="297" y="707"/>
      <point x="238" y="760"/>
      <point x="125" y="760" type="curve" smooth="yes"/>
      <point x="29" y="760" type="line"/>
      <point x="29" y="707" type="line"/>
      <point x="69" y="707" type="line" smooth="yes"/>
      <point x="125" y="707"/>
      <point x="139" y="673"/>
      <point x="139" y="610" type="curve" smooth="yes"/>
      <point x="139" y="440" type="line" smooth="yes"/>
      <point x="139" y="380"/>
      <point x="172" y="341"/>
      <point x="249" y="323" type="curve"/>
      <point x="249" y="315" type="line"/>
      <point x="173" y="296"/>
      <point x="139" y="257"/>
      <point x="139" y="197" type="curve" smooth="yes"/>
      <point x="139" y="26" type="line" smooth="yes"/>
      <point x="139" y="-37"/>
      <point x="125" y="-71"/>
      <point x="69" y="-71" type="curve" smooth="yes"/>
      <point x="29" y="-71" type="line"/>
    </contour>
  </outline>
</glyph>
<glyph name="anudatta_deva" format="2">
  <unicode hex="0952"/>
  <anchor x="243" y="0" name="_bottom"/>
  <outline>
    <contour>
      <point x="24" y="-181" type="line"/>
      <point x="461" y="-181" type="line"/>
      <point x="461" y="-75" type="line"/>
      <point x="24" y="-75" type="line"/>
    </contour>
  </outline>
</glyph>
<glyph name="spacingCandrabindu_kannada" format="2">
  <advance width="523"/>
  <unicode hex="0C80"/>
  <outline>
    <contour>
      <point x="463" y="356"/>
      <point x="477" y="493" type="curve"/>
      <point x="426" y="503" type="line"/>
      <point x="406" y="425"/>
      <point x="357" y="378"/>
      <point x="262" y="378" type="curve" smooth="yes"/>
      <point x="167" y="378"/>
      <point x="116" y="425"/>
      <point x="97" y="503" type="curve"/>
      <point x="46" y="493" type="line"/>
      <point x="60" y="356"/>
      <point x="135" y="263"/>
      <point x="262" y="263" type="curve" smooth="yes"/>
      <point x="390" y="263"/>
    </contour>
    <contour>
      <point x="326" y="467"/>
      <point x="326" y="508" type="curve" smooth="yes"/>
      <point x="326" y="547"/>
      <point x="297" y="572"/>
      <point x="262" y="572" type="curve" smooth="yes"/>
      <point x="226" y="572"/>
      <point x="196" y="548"/>
      <point x="196" y="508" type="curve" smooth="yes"/>
      <point x="196" y="468"/>
      <point x="226" y="444"/>
      <point x="262" y="444" type="curve" smooth="yes"/>
      <point x="295" y="444"/>
    </contour>
  </outline>
</glyph>
<glyph name="candrabindu_kannada" format="2">
  <unicode hex="0C81"/>
  <anchor x="0" y="396" name="_top"/>
  <outline>
    <contour>
      <point x="177" y="587"/>
      <point x="199" y="710" type="curve"/>
      <point x="152" y="725" type="line"/>
      <point x="127" y="662"/>
      <point x="87" y="615"/>
      <point x="0" y="615" type="curve" smooth="yes"/>
      <point x="-87" y="615"/>
      <point x="-129" y="662"/>
      <point x="-154" y="725" type="curve"/>
      <point x="-201" y="710" type="line"/>
      <point x="-178" y="587"/>
      <point x="-117" y="501"/>
      <point x="0" y="501" type="curve" smooth="yes"/>
      <point x="117" y="501"/>
    </contour>
    <contour>
      <point x="63" y="704"/>
      <point x="63" y="745" type="curve" smooth="yes"/>
      <point x="63" y="784"/>
      <point x="35" y="809"/>
      <point x="0" y="809" type="curve" smooth="yes"/>
      <point x="-37" y="809"/>
      <point x="-66" y="785"/>
      <point x="-66" y="745" type="curve" smooth="yes"/>
      <point x="-66" y="705"/>
      <point x="-36" y="681"/>
      <point x="0" y="681" type="curve" smooth="yes"/>
      <point x="33" y="681"/>
    </contour>
  </outline>
</glyph>
<glyph name="nukta_kannada" format="2">
  <unicode hex="0CBC"/>
  <anchor x="0" y="0" name="_bottom"/>
  <outline>
    <contour>
      <point x="123" y="-186" type="curve" smooth="yes"/>
      <point x="153" y="-186"/>
      <point x="180" y="-165"/>
      <point x="180" y="-128" type="curve" smooth="yes"/>
      <point x="180" y="-93"/>
      <point x="154" y="-70"/>
      <point x="123" y="-70" type="curve" smooth="yes"/>
      <point x="90" y="-70"/>
      <point x="63" y="-92"/>
      <point x="63" y="-128" type="curve" smooth="yes"/>
      <point x="63" y="-165"/>
      <point x="90" y="-186"/>
    </contour>
    <contour>
      <point x="-120" y="-186" type="curve" smooth="yes"/>
      <point x="-90" y="-186"/>
      <point x="-63" y="-165"/>
      <point x="-63" y="-128" type="curve" smooth="yes"/>
      <point x="-63" y="-93"/>
      <point x="-89" y="-70"/>
      <point x="-120" y="-70" type="curve" smooth="yes"/>
      <point x="-153" y="-70"/>
      <point x="-180" y="-92"/>
      <point x="-180" y="-128" type="curve" smooth="yes"/>
      <point x="-180" y="-165"/>
      <point x="-153" y="-186"/>
    </contour>
  </outline>
</glyph>
<glyph name="iMatra_kannada" format="2">
  <unicode hex="0CBF"/>
  <anchor x="0" y="409" name="_top"/>
  <outline>
    <contour>
      <point x="19" y="421" type="curve" smooth="yes"/>
      <point x="86" y="421"/>
      <point x="151" y="503"/>
      <point x="151" y="612" type="curve" smooth="yes"/>
      <point x="151" y="715"/>
      <point x="90" y="809"/>
      <point x="-16" y="809" type="curve" smooth="yes"/>
      <point x="-104" y="809"/>
      <point x="-151" y="749"/>
      <point x="-151" y="677" type="curve" smooth="yes"/>
      <point x="-151" y="601"/>
      <point x="-105" y="551"/>
      <point x="-32" y="551" type="curve" smooth="yes"/>
      <point x="40" y="551"/>
      <point x="76" y="599"/>
      <point x="76" y="667" type="curve" smooth="yes"/>
      <point x="76" y="687"/>
      <point x="71" y="709"/>
      <point x="62" y="722" type="curve"/>
      <point x="18" y="727" type="line"/>
      <point x="76" y="708"/>
      <point x="97" y="671"/>
      <point x="97" y="625" type="curve" smooth="yes"/>
      <point x="97" y="549"/>
      <point x="40" y="509"/>
      <point x="-42" y="477" type="curve"/>
      <point x="-42" y="443"/>
      <point x="-18" y="421"/>
    </contour>
    <contour>
      <point x="-38" y="645" type="curve" smooth="yes"/>
      <point x="-80" y="645"/>
      <point x="-95" y="660"/>
      <point x="-95" y="681" type="curve" smooth="yes"/>
      <point x="-95" y="699"/>
      <point x="-80" y="715"/>
      <point x="-38" y="715" type="curve" smooth="yes"/>
      <point x="2" y="715"/>
      <point x="21" y="700"/>
      <point x="21" y="680" type="curve" smooth="yes"/>
      <point x="21" y="660"/>
      <point x="2" y="645"/>
    </contour>
  </outline>
</glyph>
<glyph name="llVocalic_kannada" format="2">
  <advance width="1258"/>
  <unicode hex="0CE1"/>
  <outline>
    <contour>
      <point x="801" y="145"/>
      <point x="801" y="352" type="curve" smooth="yes"/>
      <point x="801" y="396"/>
      <point x="793" y="438"/>
      <point x="777" y="472" type="curve"/>
      <point x="764" y="433" type="line"/>
      <point x="904" y="433" type="line" smooth="yes"/>
      <point x="1000" y="433"/>
      <point x="1050" y="417"/>
      <point x="1087" y="388" type="curve" smooth="yes"/>
      <point x="1126" y="357"/>
      <point x="1145" y="311"/>
      <point x="1145" y="250" type="curve" smooth="yes"/>
      <point x="1145" y="156"/>
      <point x="1095" y="99"/>
      <point x="1010" y="99" type="curve" smooth="yes"/>
      <point x="945" y="99"/>
      <point x="913" y="126"/>
      <point x="913" y="164" type="curve" smooth="yes"/>
      <point x="913" y="189"/>
      <point x="925" y="209"/>
      <point x="946" y="218" type="curve"/>
      <point x="932" y="240" type="line"/>
      <point x="932" y="233"/>
      <point x="932" y="227"/>
      <point x="932" y="221" type="curve" smooth="yes"/>
      <point x="932" y="182"/>
      <point x="957" y="159"/>
      <point x="997" y="159" type="curve" smooth="yes"/>
      <point x="1041" y="159"/>
      <point x="1065" y="187"/>
      <point x="1065" y="225" type="curve" smooth="yes"/>
      <point x="1065" y="267"/>
      <point x="1037" y="298"/>
      <point x="983" y="298" type="curve" smooth="yes"/>
      <point x="910" y="298"/>
      <point x="850" y="242"/>
      <point x="850" y="149" type="curve" smooth="yes"/>
      <point x="850" y="52"/>
      <point x="912" y="-12"/>
      <point x="1019" y="-12" type="curve" smooth="yes"/>
      <point x="1143" y="-12"/>
      <point x="1208" y="99"/>
      <point x="1208" y="253" type="curve" smooth="yes"/>
      <point x="1208" y="359"/>
      <point x="1176" y="438"/>
      <point x="1124" y="488" type="curve" smooth="yes"/>
      <point x="1072" y="538"/>
      <point x="1015" y="561"/>
      <point x="889" y="561" type="curve" smooth="yes"/>
      <point x="708" y="561" type="line"/>
      <point x="683" y="508" type="line"/>
      <point x="723" y="470"/>
      <point x="740" y="422"/>
      <point x="740" y="367" type="curve" smooth="yes"/>
      <point x="740" y="223"/>
      <point x="627" y="136"/>
      <point x="466" y="136" type="curve" smooth="yes"/>
      <point x="405" y="136"/>
      <point x="379" y="154"/>
      <point x="379" y="181" type="curve" smooth="yes"/>
      <point x="379" y="213"/>
      <point x="409" y="227"/>
      <point x="492" y="250" type="curve" smooth="yes"/>
      <point x="595" y="278"/>
      <point x="637" y="325"/>
      <point x="637" y="415" type="curve" smooth="yes"/>
      <point x="637" y="500"/>
      <point x="586" y="566"/>
      <point x="487" y="566" type="curve" smooth="yes"/>
      <point x="396" y="566"/>
      <point x="339" y="512"/>
      <point x="333" y="430" type="curve"/>
      <point x="345" y="430" type="line"/>
      <point x="335" y="504"/>
      <point x="283" y="566"/>
      <point x="191" y="566" type="curve" smooth="yes"/>
      <point x="100" y="566"/>
      <point x="36" y="503"/>
      <point x="36" y="422" type="curve" smooth="yes"/>
      <point x="36" y="361"/>
      <point x="61" y="318"/>
      <point x="108" y="286" type="curve"/>
      <point x="137" y="314" type="line"/>
      <point x="123" y="329"/>
      <point x="115" y="344"/>
      <point x="115" y="362" type="curve" smooth="yes"/>
      <point x="115" y="398"/>
      <point x="149" y="423"/>
      <point x="210" y="423" type="curve" smooth="yes"/>
      <point x="272" y="423"/>
      <point x="306" y="394"/>
      <point x="310" y="348" type="curve"/>
      <point x="365" y="348" type="line"/>
      <point x="369" y="394"/>
      <point x="408" y="423"/>
      <point x="475" y="423" type="curve" smooth="yes"/>
      <point x="533" y="423"/>
      <point x="558" y="403"/>
      <point x="558" y="374" type="curve" smooth="yes"/>
      <point x="558" y="341"/>
      <point x="529" y="321"/>
      <point x="439" y="298" type="curve" smooth="yes"/>
      <point x="319" y="267"/>
      <point x="264" y="221"/>
      <point x="264" y="138" type="curve" smooth="yes"/>
      <point x="264" y="42"/>
      <point x="347" y="-12"/>
      <point x="477" y="-12" type="curve" smooth="yes"/>
      <point x="669" y="-12"/>
    </contour>
  </outline>
</glyph>
<glyph name="llVocalicMatra_kannada" format="2">
  <unicode hex="0CE3"/>
  <outline>
    <contour>
      <point x="33" y="-550" type="curve" smooth="yes"/>
      <point x="216" y="-550"/>
      <point x="342" y="-431"/>
      <point x="342" y="-260" type="curve" smooth="yes"/>
      <point x="342" y="-210"/>
      <point x="328" y="-167"/>
      <point x="303" y="-135" type="curve"/>
      <point x="300" y="-175" type="line"/>
      <point x="466" y="-175" type="line" smooth="yes"/>
      <point x="595" y="-175"/>
      <point x="647" y="-232"/>
      <point x="647" y="-325" type="curve" smooth="yes"/>
      <point x="647" y="-409"/>
      <point x="601" y="-457"/>
      <point x="527" y="-457" type="curve" smooth="yes"/>
      <point x="466" y="-457"/>
      <point x="432" y="-430"/>
      <point x="432" y="-389" type="curve" smooth="yes"/>
      <point x="432" y="-362"/>
      <point x="444" y="-344"/>
      <point x="466" y="-335" type="curve"/>
      <point x="460" y="-315" type="line"/>
      <point x="455" y="-322"/>
      <point x="453" y="-330"/>
      <point x="453" y="-337" type="curve" smooth="yes"/>
      <point x="453" y="-370"/>
      <point x="474" y="-394"/>
      <point x="512" y="-394" type="curve" smooth="yes"/>
      <point x="551" y="-394"/>
      <point x="573" y="-368"/>
      <point x="573" y="-332" type="curve" smooth="yes"/>
      <point x="573" y="-291"/>
      <point x="548" y="-262"/>
      <point x="500" y="-262" type="curve" smooth="yes"/>
      <point x="435" y="-262"/>
      <point x="382" y="-319"/>
      <point x="382" y="-401" type="curve" smooth="yes"/>
      <point x="382" y="-492"/>
      <point x="443" y="-550"/>
      <point x="531" y="-550" type="curve" smooth="yes"/>
      <point x="637" y="-550"/>
      <point x="698" y="-463"/>
      <point x="698" y="-328" type="curve" smooth="yes"/>
      <point x="698" y="-179"/>
      <point x="620" y="-70"/>
      <point x="446" y="-70" type="curve" smooth="yes"/>
      <point x="241" y="-70" type="line"/>
      <point x="221" y="-109" type="line"/>
      <point x="261" y="-137"/>
      <point x="291" y="-182"/>
      <point x="291" y="-245" type="curve" smooth="yes"/>
      <point x="291" y="-367"/>
      <point x="175" y="-438"/>
      <point x="35" y="-438" type="curve" smooth="yes"/>
      <point x="-21" y="-438"/>
      <point x="-45" y="-426"/>
      <point x="-45" y="-401" type="curve" smooth="yes"/>
      <point x="-45" y="-374"/>
      <point x="-21" y="-360"/>
      <point x="52" y="-333" type="curve" smooth="yes"/>
      <point x="139" y="-301"/>
      <point x="174" y="-264"/>
      <point x="174" y="-188" type="curve" smooth="yes"/>
      <point x="174" y="-125"/>
      <point x="132" y="-67"/>
      <point x="57" y="-67" type="curve" smooth="yes"/>
      <point x="-16" y="-67"/>
      <point x="-65" y="-119"/>
      <point x="-79" y="-187" type="curve"/>
      <point x="-69" y="-187" type="line"/>
      <point x="-81" y="-119"/>
      <point x="-128" y="-67"/>
      <point x="-201" y="-67" type="curve" smooth="yes"/>
      <point x="-275" y="-67"/>
      <point x="-324" y="-119"/>
      <point x="-324" y="-186" type="curve" smooth="yes"/>
      <point x="-324" y="-239"/>
      <point x="-297" y="-275"/>
      <point x="-259" y="-300" type="curve"/>
      <point x="-234" y="-273" type="line"/>
      <point x="-244" y="-263"/>
      <point x="-252" y="-250"/>
      <point x="-252" y="-233" type="curve" smooth="yes"/>
      <point x="-252" y="-203"/>
      <point x="-227" y="-181"/>
      <point x="-184" y="-181" type="curve" smooth="yes"/>
      <point x="-131" y="-181"/>
      <point x="-104" y="-212"/>
      <point x="-96" y="-255" type="curve"/>
      <point x="-53" y="-255" type="line"/>
      <point x="-46" y="-210"/>
      <point x="-11" y="-181"/>
      <point x="39" y="-181" type="curve" smooth="yes"/>
      <point x="74" y="-181"/>
      <point x="98" y="-196"/>
      <point x="98" y="-224" type="curve" smooth="yes"/>
      <point x="98" y="-257"/>
      <point x="71" y="-272"/>
      <point x="-2" y="-297" type="curve" smooth="yes"/>
      <point x="-102" y="-332"/>
      <point x="-145" y="-368"/>
      <point x="-145" y="-430" type="curve" smooth="yes"/>
      <point x="-145" y="-498"/>
      <point x="-81" y="-550"/>
    </contour>
  </outline>
</glyph>
<glyph name="jihvamuliya_kannada" format="2">
  <advance width="585"/>
  <unicode hex="0CF1"/>
  <outline>
    <contour>
      <point x="46" y="0" type="line"/>
      <point x="539" y="0" type="line"/>
      <point x="539" y="38" type="line"/>
      <point x="208" y="510" type="line"/>
      <point x="226" y="508"/>
      <point x="248" y="507"/>
      <point x="271" y="507" type="curve" smooth="yes"/>
      <point x="364" y="507" type="line" smooth="yes"/>
      <point x="388" y="507"/>
      <point x="410" y="508"/>
      <point x="428" y="510" type="curve"/>
      <point x="46" y="38" type="line"/>
    </contour>
    <contour>
      <point x="146" y="56" type="curve"/>
      <point x="528" y="522" type="line"/>
      <point x="528" y="561" type="line"/>
      <point x="57" y="561" type="line"/>
      <point x="57" y="522" type="line"/>
      <point x="388" y="56" type="line"/>
      <point x="366" y="59"/>
      <point x="336" y="59"/>
      <point x="312" y="59" type="curve" smooth="yes"/>
      <point x="221" y="59" type="line" smooth="yes"/>
      <point x="197" y="59"/>
      <point x="167" y="59"/>
    </contour>
  </outline>
</glyph>
<glyph name="upadhmaniya_kannada" format="2">
  <advance width="720"/>
  <unicode hex="0CF2"/>
  <outline>
    <contour>
      <point x="548" y="82" type="curve" smooth="yes"/>
      <point x="641" y="82"/>
      <point x="704" y="153"/>
      <point x="704" y="257" type="curve" smooth="yes"/>
      <point x="704" y="361"/>
      <point x="641" y="432"/>
      <point x="548" y="432" type="curve" smooth="yes"/>
      <point x="455" y="432"/>
      <point x="392" y="361"/>
      <point x="392" y="257" type="curve" smooth="yes"/>
      <point x="392" y="153"/>
      <point x="455" y="82"/>
    </contour>
    <contour>
      <point x="173" y="82" type="curve" smooth="yes"/>
      <point x="267" y="82"/>
      <point x="330" y="153"/>
      <point x="330" y="257" type="curve" smooth="yes"/>
      <point x="330" y="361"/>
      <point x="267" y="432"/>
      <point x="173" y="432" type="curve" smooth="yes"/>
      <point x="80" y="432"/>
      <point x="18" y="361"/>
      <point x="18" y="257" type="curve" smooth="yes"/>
      <point x="18" y="153"/>
      <point x="80" y="82"/>
    </contour>
    <contour>
      <point x="173" y="199" type="curve" smooth="yes"/>
      <point x="113" y="199"/>
      <point x="77" y="222"/>
      <point x="77" y="257" type="curve" smooth="yes"/>
      <point x="77" y="292"/>
      <point x="113" y="315"/>
      <point x="173" y="315" type="curve" smooth="yes"/>
      <point x="234" y="315"/>
      <point x="270" y="292"/>
      <point x="270" y="257" type="curve" smooth="yes"/>
      <point x="270" y="222"/>
      <point x="234" y="199"/>
    </contour>
    <contour>
      <point x="548" y="199" type="curve" smooth="yes"/>
      <point x="487" y="199"/>
      <point x="451" y="222"/>
      <point x="451" y="257" type="curve" smooth="yes"/>
      <point x="451" y="292"/>
      <point x="487" y="315"/>
      <point x="548" y="315" type="curve" smooth="yes"/>
      <point x="608" y="315"/>
      <point x="645" y="292"/>
      <point x="645" y="257" type="curve" smooth="yes"/>
      <point x="645" y="222"/>
      <point x="608" y="199"/>
    </contour>
  </outline>
</glyph>
<glyph name="doubleSvarita_vedic" format="2">
  <unicode hex="1CDA"/>
  <note>
uni1CDA
</note>
  <anchor x="152" y="561" name="_top"/>
  <outline>
    <contour>
      <point x="182" y="677" type="line"/>
      <point x="282" y="677" type="line"/>
      <point x="282" y="877" type="line"/>
      <point x="182" y="877" type="line"/>
    </contour>
    <contour>
      <point x="21" y="677" type="line"/>
      <point x="122" y="677" type="line"/>
      <point x="122" y="877" type="line"/>
      <point x="21" y="877" type="line"/>
    </contour>
  </outline>
</glyph>
<glyph name="ellipsis" format="2">
  <advance width="915"/>
  <unicode hex="2026"/>
  <outline>
    <contour>
      <point x="762" y="-8" type="curve" smooth="yes"/>
      <point x="806" y="-8"/>
      <point x="845" y="12"/>
      <point x="845" y="72" type="curve" smooth="yes"/>
      <point x="845" y="134"/>
      <point x="806" y="153"/>
      <point x="762" y="153" type="curve" smooth="yes"/>
      <point x="715" y="153"/>
      <point x="679" y="134"/>
      <point x="679" y="72" type="curve" smooth="yes"/>
      <point x="679" y="12"/>
      <point x="715" y="-8"/>
    </contour>
    <contour>
      <point x="153" y="-8" type="curve" smooth="yes"/>
      <point x="197" y="-8"/>
      <point x="235" y="12"/>
      <point x="235" y="72" type="curve" smooth="yes"/>
      <point x="235" y="134"/>
      <point x="197" y="153"/>
      <point x="153" y="153" type="curve" smooth="yes"/>
      <point x="106" y="153"/>
      <point x="70" y="134"/>
      <point x="70" y="72" type="curve" smooth="yes"/>
      <point x="70" y="12"/>
      <point x="106" y="-8"/>
    </contour>
    <contour>
      <point x="458" y="-8" type="curve" smooth="yes"/>
      <point x="501" y="-8"/>
      <point x="540" y="12"/>
      <point x="540" y="72" type="curve" smooth="yes"/>
      <point x="540" y="134"/>
      <point x="501" y="153"/>
      <point x="458" y="153" type="curve" smooth="yes"/>
      <point x="411" y="153"/>
      <point x="375" y="134"/>
      <point x="375" y="72" type="curve" smooth="yes"/>
      <point x="375" y="12"/>
      <point x="411" y="-8"/>
    </contour>
  </outline>
</glyph>
<glyph name="fractionOneQuarter_cinf" format="2">
  <advance width="260"/>
  <unicode hex="A830"/>
  <note>
uniA830
</note>
  <outline>
    <contour>
      <point x="176" y="-9" type="line"/>
      <point x="188" y="-9" type="line"/>
      <point x="188" y="566" type="line"/>
      <point x="83" y="631" type="line"/>
      <point x="70" y="631" type="line"/>
      <point x="70" y="55" type="line"/>
    </contour>
  </outline>
</glyph>
<glyph name="fractionOneSixteenth_cinf" format="2">
  <advance width="651"/>
  <unicode hex="A833"/>
  <note>
uniA833
</note>
  <outline>
    <contour>
      <point x="617" y="544" type="line"/>
      <point x="521" y="643" type="line"/>
      <point x="34" y="524" type="line"/>
      <point x="130" y="421" type="line"/>
    </contour>
  </outline>
</glyph>
<glyph name="j_nya_kannada.below" format="2">
  <outline>
    <contour>
      <point x="-16" y="-807" type="curve" smooth="yes"/>
      <point x="17" y="-807"/>
      <point x="37" y="-782"/>
      <point x="37" y="-740" type="curve" smooth="yes"/>
      <point x="37" y="-654"/>
      <point x="-43" y="-560"/>
      <point x="-142" y="-560" type="curve" smooth="yes"/>
      <point x="-205" y="-560"/>
      <point x="-246" y="-595"/>
      <point x="-246" y="-644" type="curve" smooth="yes"/>
      <point x="-246" y="-692"/>
      <point x="-204" y="-728"/>
      <point x="-138" y="-728" type="curve" smooth="yes"/>
      <point x="-40" y="-728"/>
      <point x="29" y="-634"/>
      <point x="29" y="-539" type="curve" smooth="yes"/>
      <point x="29" y="-467"/>
      <point x="0" y="-410"/>
      <point x="-66" y="-410" type="curve" smooth="yes"/>
      <point x="-112" y="-410"/>
      <point x="-145" y="-442"/>
      <point x="-151" y="-483" type="curve"/>
      <point x="-143" y="-483" type="line"/>
      <point x="-149" y="-442"/>
      <point x="-179" y="-410"/>
      <point x="-229" y="-410" type="curve" smooth="yes"/>
      <point x="-280" y="-410"/>
      <point x="-314" y="-445"/>
      <point x="-314" y="-490" type="curve" smooth="yes"/>
      <point x="-314" y="-523"/>
      <point x="-299" y="-547"/>
      <point x="-273" y="-567" type="curve"/>
      <point x="-251" y="-547" type="line"/>
      <point x="-259" y="-540"/>
      <point x="-264" y="-533"/>
      <point x="-264" y="-524" type="curve" smooth="yes"/>
      <point x="-264" y="-507"/>
      <point x="-248" y="-496"/>
      <point x="-217" y="-496" type="curve" smooth="yes"/>
      <point x="-183" y="-496"/>
      <point x="-165" y="-510"/>
      <point x="-164" y="-533" type="curve"/>
      <point x="-132" y="-533" type="line"/>
      <point x="-130" y="-510"/>
      <point x="-108" y="-496"/>
      <point x="-75" y="-496" type="curve" smooth="yes"/>
      <point x="-39" y="-496"/>
      <point x="-20" y="-515"/>
      <point x="-20" y="-546" type="curve" smooth="yes"/>
      <point x="-20" y="-604"/>
      <point x="-79" y="-646"/>
      <point x="-150" y="-646" type="curve" smooth="yes"/>
      <point x="-175" y="-646"/>
      <point x="-187" y="-639"/>
      <point x="-187" y="-628" type="curve" smooth="yes"/>
      <point x="-187" y="-616"/>
      <point x="-172" y="-609"/>
      <point x="-143" y="-609" type="curve" smooth="yes"/>
      <point x="-73" y="-609"/>
      <point x="-21" y="-659"/>
      <point x="-21" y="-707" type="curve" smooth="yes"/>
      <point x="-21" y="-734"/>
      <point x="-36" y="-750"/>
      <point x="-62" y="-759" type="curve"/>
      <point x="-62" y="-786"/>
      <point x="-44" y="-807"/>
    </contour>
    <contour>
      <point x="133" y="-567" type="line"/>
      <point x="158" y="-547"/>
      <point x="173" y="-523"/>
      <point x="173" y="-490" type="curve" smooth="yes"/>
      <point x="173" y="-445"/>
      <point x="144" y="-410"/>
      <point x="94" y="-410" type="curve" smooth="yes"/>
      <point x="43" y="-410"/>
      <point x="10" y="-443"/>
      <point x="10" y="-499" type="curve"/>
      <point x="10" y="-525" type="line"/>
      <point x="28" y="-525" type="line"/>
      <point x="28" y="-507"/>
      <point x="46" y="-496"/>
      <point x="78" y="-496" type="curve" smooth="yes"/>
      <point x="107" y="-496"/>
      <point x="123" y="-507"/>
      <point x="123" y="-523" type="curve" smooth="yes"/>
      <point x="123" y="-533"/>
      <point x="119" y="-540"/>
      <point x="110" y="-547" type="curve"/>
    </contour>
    <contour>
      <point x="-172" y="-372" type="curve" smooth="yes"/>
      <point x="-107" y="-372"/>
      <point x="-76" y="-325"/>
      <point x="-63" y="-278" type="curve"/>
      <point x="-72" y="-278" type="line"/>
      <point x="-62" y="-325"/>
      <point x="-35" y="-372"/>
      <point x="22" y="-372" type="curve" smooth="yes"/>
      <point x="75" y="-372"/>
      <point x="104" y="-325"/>
      <point x="104" y="-265" type="curve" smooth="yes"/>
      <point x="104" y="-211"/>
      <point x="88" y="-171"/>
      <point x="53" y="-171" type="curve" smooth="yes"/>
      <point x="32" y="-171"/>
      <point x="19" y="-184"/>
      <point x="16" y="-202" type="curve"/>
      <point x="36" y="-208"/>
      <point x="55" y="-220"/>
      <point x="55" y="-240" type="curve" smooth="yes"/>
      <point x="55" y="-258"/>
      <point x="37" y="-268"/>
      <point x="11" y="-268" type="curve" smooth="yes"/>
      <point x="-23" y="-268"/>
      <point x="-45" y="-252"/>
      <point x="-52" y="-233" type="curve"/>
      <point x="-83" y="-233" type="line"/>
      <point x="-89" y="-252"/>
      <point x="-109" y="-268"/>
      <point x="-135" y="-268" type="curve" smooth="yes"/>
      <point x="-159" y="-268"/>
      <point x="-173" y="-259"/>
      <point x="-173" y="-242" type="curve" smooth="yes"/>
      <point x="-173" y="-226"/>
      <point x="-164" y="-215"/>
      <point x="-142" y="-192" type="curve" smooth="yes"/>
      <point x="-123" y="-172"/>
      <point x="-113" y="-154"/>
      <point x="-113" y="-131" type="curve" smooth="yes"/>
      <point x="-113" y="-118"/>
      <point x="-117" y="-104"/>
      <point x="-126" y="-94" type="curve"/>
      <point x="-138" y="-101" type="line"/>
      <point x="-102" y="-140"/>
      <point x="-55" y="-167"/>
      <point x="-8" y="-167" type="curve" smooth="yes"/>
      <point x="45" y="-167"/>
      <point x="71" y="-127"/>
      <point x="71" y="-71" type="curve"/>
      <point x="56" y="-65" type="line"/>
      <point x="37" y="-88"/>
      <point x="13" y="-103"/>
      <point x="-26" y="-103" type="curve" smooth="yes"/>
      <point x="-112" y="-103"/>
      <point x="-128" y="-60"/>
      <point x="-193" y="-60" type="curve" smooth="yes"/>
      <point x="-245" y="-60"/>
      <point x="-274" y="-89"/>
      <point x="-274" y="-127" type="curve" smooth="yes"/>
      <point x="-274" y="-151"/>
      <point x="-261" y="-169"/>
      <point x="-246" y="-184" type="curve"/>
      <point x="-220" y="-168" type="line"/>
      <point x="-222" y="-166"/>
      <point x="-224" y="-162"/>
      <point x="-224" y="-156" type="curve" smooth="yes"/>
      <point x="-224" y="-146"/>
      <point x="-215" y="-138"/>
      <point x="-197" y="-138" type="curve" smooth="yes"/>
      <point x="-180" y="-138"/>
      <point x="-171" y="-147"/>
      <point x="-171" y="-160" type="curve" smooth="yes"/>
      <point x="-171" y="-173"/>
      <point x="-178" y="-185"/>
      <point x="-210" y="-217" type="curve" smooth="yes"/>
      <point x="-237" y="-243"/>
      <point x="-255" y="-267"/>
      <point x="-255" y="-301" type="curve" smooth="yes"/>
      <point x="-255" y="-344"/>
      <point x="-219" y="-372"/>
    </contour>
  </outline>
</glyph>
<glyph name="jha_kannada.below" format="2">
  <outline>
    <contour>
      <point x="-359" y="-436" type="curve" smooth="yes"/>
      <point x="-241" y="-436"/>
      <point x="-173" y="-352"/>
      <point x="-173" y="-246" type="curve" smooth="yes"/>
      <point x="-173" y="-152"/>
      <point x="-241" y="-60"/>
      <point x="-359" y="-60" type="curve" smooth="yes"/>
      <point x="-477" y="-60"/>
      <point x="-547" y="-149"/>
      <point x="-547" y="-247" type="curve" smooth="yes"/>
      <point x="-547" y="-357"/>
      <point x="-476" y="-436"/>
    </contour>
    <contour>
      <point x="-359" y="-319" type="curve" smooth="yes"/>
      <point x="-435" y="-319"/>
      <point x="-473" y="-273"/>
      <point x="-473" y="-215" type="curve" smooth="yes"/>
      <point x="-473" y="-159"/>
      <point x="-427" y="-114"/>
      <point x="-359" y="-114" type="curve" smooth="yes"/>
      <point x="-292" y="-114"/>
      <point x="-247" y="-159"/>
      <point x="-247" y="-215" type="curve" smooth="yes"/>
      <point x="-247" y="-273"/>
      <point x="-284" y="-319"/>
    </contour>
    <contour>
      <point x="34" y="-583" type="curve" smooth="yes"/>
      <point x="60" y="-583"/>
      <point x="74" y="-573"/>
      <point x="74" y="-549" type="curve" smooth="yes"/>
      <point x="74" y="-522"/>
      <point x="59" y="-472"/>
      <point x="45" y="-436" type="curve"/>
      <point x="22" y="-436" type="line"/>
      <point x="9" y="-473"/>
      <point x="-7" y="-524"/>
      <point x="-7" y="-549" type="curve" smooth="yes"/>
      <point x="-7" y="-573"/>
      <point x="9" y="-583"/>
    </contour>
    <contour>
      <point x="-61" y="-436" type="curve" smooth="yes"/>
      <point x="14" y="-436"/>
      <point x="54" y="-370"/>
      <point x="54" y="-277" type="curve" smooth="yes"/>
      <point x="54" y="-158"/>
      <point x="-27" y="-60"/>
      <point x="-81" y="-60" type="curve" smooth="yes"/>
      <point x="-104" y="-60"/>
      <point x="-117" y="-80"/>
      <point x="-117" y="-108" type="curve" smooth="yes"/>
      <point x="-117" y="-123"/>
      <point x="-114" y="-136"/>
      <point x="-110" y="-145" type="curve"/>
      <point x="-41" y="-164"/>
      <point x="2" y="-196"/>
      <point x="2" y="-255" type="curve" smooth="yes"/>
      <point x="2" y="-291"/>
      <point x="-22" y="-319"/>
      <point x="-72" y="-319" type="curve" smooth="yes"/>
      <point x="-125" y="-319"/>
      <point x="-162" y="-293"/>
      <point x="-188" y="-263" type="curve"/>
      <point x="-216" y="-282" type="line"/>
      <point x="-184" y="-366"/>
      <point x="-141" y="-436"/>
    </contour>
    <contour>
      <point x="171" y="-436" type="curve" smooth="yes"/>
      <point x="246" y="-436"/>
      <point x="286" y="-370"/>
      <point x="286" y="-277" type="curve" smooth="yes"/>
      <point x="286" y="-158"/>
      <point x="204" y="-60"/>
      <point x="151" y="-60" type="curve" smooth="yes"/>
      <point x="127" y="-60"/>
      <point x="115" y="-80"/>
      <point x="115" y="-108" type="curve" smooth="yes"/>
      <point x="115" y="-123"/>
      <point x="118" y="-135"/>
      <point x="121" y="-145" type="curve"/>
      <point x="191" y="-164"/>
      <point x="234" y="-196"/>
      <point x="234" y="-255" type="curve" smooth="yes"/>
      <point x="234" y="-291"/>
      <point x="209" y="-319"/>
      <point x="160" y="-319" type="curve" smooth="yes"/>
      <point x="106" y="-319"/>
      <point x="70" y="-293"/>
      <point x="43" y="-263" type="curve"/>
      <point x="15" y="-282" type="line"/>
      <point x="48" y="-366"/>
      <point x="90" y="-436"/>
    </contour>
  </outline>
</glyph>
<glyph name="ki_kannada" format="2">
  <advance width="578"/>
  <anchor x="295" y="0" name="bottom"/>
  <anchor x="289" y="676" name="top"/>
  <outline>
    <contour>
      <point x="290" y="-12" type="curve" smooth="yes"/>
      <point x="409" y="-12"/>
      <point x="482" y="57"/>
      <point x="482" y="146" type="curve" smooth="yes"/>
      <point x="482" y="210"/>
      <point x="448" y="258"/>
      <point x="399" y="283" type="curve"/>
      <point x="405" y="272" type="line"/>
      <point x="431" y="270"/>
      <point x="460" y="268"/>
      <point x="496" y="268" type="curve" smooth="yes"/>
      <point x="524" y="268" type="line"/>
      <point x="524" y="365" type="line"/>
      <point x="61" y="365" type="line"/>
      <point x="54" y="268" type="line"/>
      <point x="84" y="268" type="line" smooth="yes"/>
      <point x="118" y="268"/>
      <point x="146" y="270"/>
      <point x="172" y="272" type="curve"/>
      <point x="180" y="283" type="line"/>
      <point x="132" y="258"/>
      <point x="98" y="210"/>
      <point x="98" y="146" type="curve" smooth="yes"/>
      <point x="98" y="57"/>
      <point x="170" y="-12"/>
    </contour>
    <contour>
      <point x="290" y="126" type="curve" smooth="yes"/>
      <point x="218" y="126"/>
      <point x="184" y="151"/>
      <point x="184" y="196" type="curve" smooth="yes"/>
      <point x="184" y="244"/>
      <point x="220" y="274"/>
      <point x="291" y="274" type="curve" smooth="yes"/>
      <point x="359" y="274"/>
      <point x="397" y="246"/>
      <point x="397" y="196" type="curve" smooth="yes"/>
      <point x="397" y="154"/>
      <point x="365" y="126"/>
    </contour>
    <contour>
      <point x="325" y="303" type="line"/>
      <point x="402" y="348"/>
      <point x="458" y="400"/>
      <point x="458" y="498" type="curve" smooth="yes"/>
      <point x="458" y="604"/>
      <point x="384" y="695"/>
      <point x="270" y="695" type="curve" smooth="yes"/>
      <point x="173" y="695"/>
      <point x="124" y="636"/>
      <point x="124" y="562" type="curve" smooth="yes"/>
      <point x="124" y="485"/>
      <point x="169" y="438"/>
      <point x="243" y="438" type="curve" smooth="yes"/>
      <point x="329" y="438"/>
      <point x="356" y="491"/>
      <point x="356" y="556" type="curve" smooth="yes"/>
      <point x="356" y="577"/>
      <point x="348" y="602"/>
      <point x="339" y="613" type="curve"/>
      <point x="295" y="614" type="line"/>
      <point x="363" y="597"/>
      <point x="397" y="557"/>
      <point x="397" y="494" type="curve" smooth="yes"/>
      <point x="397" y="425"/>
      <point x="330" y="371"/>
      <point x="215" y="325" type="curve"/>
    </contour>
    <contour>
      <point x="240" y="528" type="curve" smooth="yes"/>
      <point x="200" y="528"/>
      <point x="183" y="544"/>
      <point x="183" y="564" type="curve" smooth="yes"/>
      <point x="183" y="585"/>
      <point x="200" y="601"/>
      <point x="240" y="601" type="curve" smooth="yes"/>
      <point x="279" y="601"/>
      <point x="297" y="585"/>
      <point x="297" y="564" type="curve" smooth="yes"/>
      <point x="297" y="544"/>
      <point x="279" y="528"/>
    </contour>
  </outline>
</glyph>
<glyph name="ma_kannada.base" format="2">
  <advance width="1089"/>
  <anchor x="387" y="0" name="bottom"/>
  <anchor x="321" y="561" name="top"/>
  <anchor x="897" y="433" name="topright"/>
  <outline>
    <contour>
      <point x="868" y="-12" type="curve" smooth="yes"/>
      <point x="983" y="-12"/>
      <point x="1041" y="91"/>
      <point x="1041" y="225" type="curve" smooth="yes"/>
      <point x="1041" y="394"/>
      <point x="920" y="529"/>
      <point x="830" y="542" type="curve"/>
      <point x="796" y="433" type="line"/>
      <point x="907" y="404"/>
      <point x="977" y="340"/>
      <point x="977" y="248" type="curve" smooth="yes"/>
      <point x="977" y="183"/>
      <point x="934" y="137"/>
      <point x="855" y="137" type="curve" smooth="yes"/>
      <point x="772" y="137"/>
      <point x="718" y="176"/>
      <point x="678" y="233" type="curve"/>
      <point x="646" y="217" type="line"/>
      <point x="685" y="118"/>
      <point x="745" y="-12"/>
    </contour>
    <contour>
      <point x="795" y="433" type="line"/>
      <point x="958" y="433" type="line"/>
      <point x="958" y="561" type="line"/>
      <point x="805" y="561" type="line"/>
    </contour>
    <component base="va_kannada" xOffset="1"/>
  </outline>
</glyph>
<glyph name="mi_kannada" format="2">
  <advance width="1074"/>
  <anchor x="386" y="0" name="bottom"/>
  <anchor x="535" y="687" name="top"/>
  <outline>
    <contour>
      <point x="212" y="-12" type="curve" smooth="yes"/>
      <point x="311" y="-12"/>
      <point x="361" y="56"/>
      <point x="383" y="147" type="curve"/>
      <point x="376" y="147" type="line"/>
      <point x="397" y="56"/>
      <point x="447" y="-12"/>
      <point x="543" y="-12" type="curve" smooth="yes"/>
      <point x="652" y="-12"/>
      <point x="698" y="84"/>
      <point x="698" y="217" type="curve" smooth="yes"/>
      <point x="698" y="474"/>
      <point x="527" y="706"/>
      <point x="311" y="706" type="curve" smooth="yes"/>
      <point x="213" y="706"/>
      <point x="164" y="648"/>
      <point x="164" y="575" type="curve" smooth="yes"/>
      <point x="164" y="502"/>
      <point x="211" y="454"/>
      <point x="282" y="454" type="curve" smooth="yes"/>
      <point x="365" y="454"/>
      <point x="398" y="504"/>
      <point x="398" y="567" type="curve" smooth="yes"/>
      <point x="398" y="586"/>
      <point x="387" y="612"/>
      <point x="377" y="624" type="curve"/>
      <point x="333" y="625" type="line"/>
      <point x="516" y="593"/>
      <point x="622" y="442"/>
      <point x="622" y="272" type="curve" smooth="yes"/>
      <point x="622" y="187"/>
      <point x="587" y="137"/>
      <point x="522" y="137" type="curve" smooth="yes"/>
      <point x="458" y="137"/>
      <point x="424" y="170"/>
      <point x="403" y="221" type="curve"/>
      <point x="357" y="221" type="line"/>
      <point x="334" y="161"/>
      <point x="290" y="128"/>
      <point x="210" y="128" type="curve" smooth="yes"/>
      <point x="142" y="128"/>
      <point x="102" y="153"/>
      <point x="102" y="204" type="curve" smooth="yes"/>
      <point x="102" y="240"/>
      <point x="126" y="263"/>
      <point x="161" y="263" type="curve" smooth="yes"/>
      <point x="186" y="263"/>
      <point x="199" y="251"/>
      <point x="199" y="234" type="curve" smooth="yes"/>
      <point x="199" y="217"/>
      <point x="189" y="208"/>
      <point x="171" y="205" type="curve"/>
      <point x="183" y="163" type="line"/>
      <point x="249" y="173"/>
      <point x="286" y="204"/>
      <point x="286" y="259" type="curve" smooth="yes"/>
      <point x="286" y="313"/>
      <point x="249" y="350"/>
      <point x="186" y="350" type="curve" smooth="yes"/>
      <point x="95" y="350"/>
      <point x="42" y="274"/>
      <point x="42" y="180" type="curve" smooth="yes"/>
      <point x="42" y="77"/>
      <point x="103" y="-12"/>
    </contour>
    <contour>
      <point x="280" y="542" type="curve" smooth="yes"/>
      <point x="236" y="542"/>
      <point x="219" y="558"/>
      <point x="219" y="579" type="curve" smooth="yes"/>
      <point x="219" y="596"/>
      <point x="234" y="615"/>
      <point x="280" y="615" type="curve" smooth="yes"/>
      <point x="325" y="615"/>
      <point x="342" y="598"/>
      <point x="342" y="578" type="curve" smooth="yes"/>
      <point x="342" y="556"/>
      <point x="321" y="542"/>
    </contour>
    <contour>
      <point x="858" y="-12" type="curve" smooth="yes"/>
      <point x="975" y="-12"/>
      <point x="1030" y="94"/>
      <point x="1030" y="225" type="curve" smooth="yes"/>
      <point x="1030" y="396"/>
      <point x="903" y="535"/>
      <point x="824" y="535" type="curve" smooth="yes"/>
      <point x="793" y="535"/>
      <point x="779" y="508"/>
      <point x="779" y="473" type="curve" smooth="yes"/>
      <point x="779" y="451"/>
      <point x="783" y="433"/>
      <point x="788" y="421" type="curve"/>
      <point x="899" y="392"/>
      <point x="966" y="340"/>
      <point x="966" y="248" type="curve" smooth="yes"/>
      <point x="966" y="183"/>
      <point x="922" y="137"/>
      <point x="840" y="137" type="curve" smooth="yes"/>
      <point x="752" y="137"/>
      <point x="702" y="177"/>
      <point x="654" y="233" type="curve"/>
      <point x="626" y="217" type="line"/>
      <point x="676" y="90"/>
      <point x="744" y="-12"/>
    </contour>
  </outline>
</glyph>
<glyph name="nukta_kannada.below.calt" format="2">
  <anchor x="0" y="0" name="_bottom"/>
  <outline>
    <contour>
      <point x="133" y="-160" type="curve" smooth="yes"/>
      <point x="156" y="-160"/>
      <point x="178" y="-144"/>
      <point x="178" y="-114" type="curve" smooth="yes"/>
      <point x="178" y="-86"/>
      <point x="157" y="-68"/>
      <point x="133" y="-68" type="curve" smooth="yes"/>
      <point x="106" y="-68"/>
      <point x="85" y="-85"/>
      <point x="85" y="-114" type="curve" smooth="yes"/>
      <point x="85" y="-143"/>
      <point x="106" y="-160"/>
    </contour>
    <contour>
      <point x="-130" y="-160" type="curve" smooth="yes"/>
      <point x="-106" y="-160"/>
      <point x="-85" y="-144"/>
      <point x="-85" y="-114" type="curve" smooth="yes"/>
      <point x="-85" y="-86"/>
      <point x="-105" y="-68"/>
      <point x="-130" y="-68" type="curve" smooth="yes"/>
      <point x="-157" y="-68"/>
      <point x="-178" y="-85"/>
      <point x="-178" y="-114" type="curve" smooth="yes"/>
      <point x="-178" y="-143"/>
      <point x="-156" y="-160"/>
    </contour>
  </outline>
</glyph>
<glyph name="nukta_kannada.below" format="2">
  <anchor x="0" y="0" name="_bottom"/>
  <outline>
    <contour>
      <point x="89" y="-160" type="curve" smooth="yes"/>
      <point x="112" y="-160"/>
      <point x="134" y="-144"/>
      <point x="134" y="-114" type="curve" smooth="yes"/>
      <point x="134" y="-86"/>
      <point x="113" y="-68"/>
      <point x="89" y="-68" type="curve" smooth="yes"/>
      <point x="62" y="-68"/>
      <point x="41" y="-85"/>
      <point x="41" y="-114" type="curve" smooth="yes"/>
      <point x="41" y="-143"/>
      <point x="63" y="-160"/>
    </contour>
    <contour>
      <point x="-86" y="-160" type="curve" smooth="yes"/>
      <point x="-63" y="-160"/>
      <point x="-41" y="-144"/>
      <point x="-41" y="-114" type="curve" smooth="yes"/>
      <point x="-41" y="-86"/>
      <point x="-62" y="-68"/>
      <point x="-86" y="-68" type="curve" smooth="yes"/>
      <point x="-113" y="-68"/>
      <point x="-134" y="-85"/>
      <point x="-134" y="-114" type="curve" smooth="yes"/>
      <point x="-134" y="-143"/>
      <point x="-112" y="-160"/>
    </contour>
  </outline>
</glyph>
